<svg xmlns="http://www.w3.org/2000/svg" viewBox="0 0 64 64">
  <defs>
    <linearGradient id="brand" x1="32" y1="4" x2="32" y2="60" gradientUnits="userSpaceOnUse">
      <stop stop-color="#60a5fa" />
      <stop offset="1" stop-color="#2563eb" />
    </linearGradient>
  </defs>
  <circle cx="32" cy="32" r="29" fill="url(#brand)" />
  <path d="M47 39V25a4 4 0 0 0-2-3.46l-11-6.28a4 4 0 0 0-4 0l-11 6.28A4 4 0 0 0 17 25v14a4 4 0 0 0 2 3.46l11 6.28a4 4 0 0 0 4 0l11-6.28A4 4 0 0 0 47 39Z" fill="none" stroke="#fff" stroke-width="3" stroke-linejoin="round" />
</svg>
